<?xml version="1.0" standalone="no"?>
<!DOCTYPE svg PUBLIC "-//W3C//DTD SVG 20010904//EN"
 "http://www.w3.org/TR/2001/REC-SVG-20010904/DTD/svg10.dtd">
<svg version="1.0" xmlns="http://www.w3.org/2000/svg"
 width="512.000000pt" height="512.000000pt" viewBox="0 0 512.000000 512.000000"
 preserveAspectRatio="xMidYMid meet">
<metadata>
Created by potrace 1.11, written by Peter Selinger 2001-2013
</metadata>
<g transform="translate(0.000000,512.000000) scale(0.100000,-0.100000)"
fill="#000000" stroke="none">
<path d="M2520 4205 c0 -10 -10 -15 -34 -15 -21 0 -36 -6 -40 -15 -3 -8 -12
-15 -20 -15 -7 0 -16 -7 -20 -15 -3 -8 -12 -15 -20 -15 -8 0 -17 -13 -21 -30
-4 -16 -13 -30 -21 -30 -9 0 -14 -11 -14 -30 l0 -30 -606 0 -605 0 -10 30 c-6
17 -17 30 -25 30 -8 0 -17 7 -20 15 -4 8 -17 15 -30 15 -15 0 -24 6 -24 15 0
12 -15 15 -75 15 -53 0 -74 -4 -73 -12 2 -6 -6 -14 -17 -16 -11 -2 -24 -10
-28 -18 -4 -8 -15 -14 -22 -14 -8 0 -15 -6 -15 -14 0 -8 -7 -16 -15 -20 -12
-4 -15 -26 -15 -105 0 -79 3 -100 15 -105 8 -3 15 -10 15 -16 0 -6 8 -20 19
-31 15 -16 17 -27 10 -57 -4 -20 -13 -38 -18 -40 -6 -2 -11 -19 -11 -38 0 -22
-5 -34 -14 -34 -8 0 -16 -16 -19 -42 -3 -24 -11 -44 -16 -46 -6 -2 -11 -17
-11 -33 0 -18 -5 -29 -14 -29 -8 0 -16 -16 -19 -42 -3 -24 -11 -44 -16 -46 -6
-2 -11 -11 -11 -21 0 -9 -7 -26 -15 -37 -8 -10 -15 -29 -15 -40 0 -12 -6 -27
-14 -33 -8 -7 -17 -30 -21 -52 -4 -21 -11 -39 -16 -39 -5 0 -12 -12 -15 -27
-4 -15 -13 -34 -21 -41 -7 -7 -13 -29 -13 -48 0 -24 -5 -34 -15 -34 -10 0 -15
-10 -15 -29 0 -16 -7 -34 -15 -41 -8 -7 -15 -27 -15 -45 0 -20 -6 -35 -15 -39
-8 -3 -15 -16 -15 -30 0 -13 -7 -26 -15 -30 -10 -3 -15 -19 -15 -45 0 -25 -5
-41 -15 -45 -9 -3 -15 -18 -15 -35 0 -16 -6 -31 -15 -35 -9 -3 -15 -19 -15
-41 0 -22 -6 -38 -15 -41 -9 -4 -15 -19 -15 -35 0 -19 -5 -29 -15 -29 -9 0
-15 -9 -15 -24 0 -33 -10 -57 -21 -50 -5 3 -9 -13 -9 -35 0 -30 -4 -41 -15
-41 -11 0 -15 -12 -15 -45 0 -33 -4 -45 -15 -45 -8 0 -15 -8 -15 -18 0 -10 -7
-27 -15 -38 -16 -22 -20 -101 -5 -106 6 -2 13 -40 17 -86 4 -59 10 -82 19 -82
10 0 14 -14 14 -44 0 -30 5 -46 15 -50 8 -3 15 -17 15 -31 0 -14 7 -28 15 -31
8 -4 15 -12 15 -20 0 -8 7 -14 15 -14 8 0 15 -8 15 -19 0 -20 43 -71 60 -71 5
0 10 -4 10 -10 0 -13 37 -50 50 -50 6 0 10 -6 10 -14 0 -7 9 -16 21 -19 12 -3
18 -10 14 -16 -4 -7 4 -11 20 -11 14 0 28 -7 31 -15 4 -8 15 -15 25 -15 11 0
22 -7 25 -15 4 -9 19 -15 35 -15 17 0 32 -6 35 -15 4 -8 19 -15 35 -15 16 0
32 -7 37 -17 9 -14 33 -16 212 -17 180 0 203 2 211 17 6 11 22 17 43 17 21 0
36 6 40 15 3 9 18 15 36 15 20 0 30 5 30 15 0 9 9 15 24 15 13 0 26 7 30 15 3
8 14 15 25 15 10 0 21 7 25 15 3 8 12 15 21 15 8 0 15 7 15 15 0 8 5 15 10 15
13 0 50 37 50 50 0 6 7 10 15 10 8 0 15 6 15 14 0 7 9 16 20 19 14 3 20 14 20
31 0 16 6 26 14 26 8 0 17 11 20 25 4 14 11 25 16 25 6 0 10 11 10 24 0 14 7
31 15 40 8 8 15 28 15 45 0 21 5 31 15 31 12 0 15 14 15 63 0 78 10 138 21
131 5 -3 9 10 9 29 0 22 -6 37 -15 41 -9 3 -15 18 -15 36 0 16 -4 30 -9 30 -5
0 -13 14 -16 32 -4 17 -14 38 -21 46 -8 7 -14 27 -14 43 0 19 -5 29 -15 29
-11 0 -15 11 -15 39 0 25 -5 41 -15 45 -9 3 -15 18 -15 36 0 20 -5 30 -15 30
-10 0 -15 10 -15 34 0 21 -6 36 -15 40 -9 3 -15 18 -15 40 0 21 -6 36 -15 40
-9 3 -15 18 -15 35 0 16 -6 31 -15 35 -9 3 -15 19 -15 41 0 22 -6 38 -15 41
-9 4 -15 19 -15 39 0 19 -8 39 -19 49 -11 10 -17 25 -14 36 3 12 -1 22 -11 26
-10 4 -16 18 -16 38 0 20 -7 37 -20 46 -12 8 -20 26 -20 42 0 15 -4 28 -10 28
-5 0 -13 12 -16 28 -4 15 -11 30 -16 33 -5 3 -12 25 -15 48 -3 24 -12 45 -19
48 -8 3 -14 18 -14 34 0 19 -5 29 -15 29 -11 0 -15 11 -15 39 0 22 -6 44 -15
51 -8 7 -15 23 -15 35 0 13 -5 25 -11 27 -5 2 -13 22 -16 46 -3 26 -11 42 -19
42 -9 0 -14 11 -14 30 0 17 -4 30 -10 30 -5 0 -12 16 -16 35 -3 20 -12 35 -20
35 -21 0 -17 10 16 42 17 15 30 33 30 38 0 7 213 10 608 10 l607 0 23 -25 c13
-13 21 -29 17 -35 -3 -5 0 -10 7 -10 7 0 21 -18 31 -39 16 -35 17 -118 17
-1279 l0 -1242 -321 0 c-335 0 -349 -2 -349 -43 0 -8 -7 -17 -15 -21 -8 -3
-15 -14 -15 -25 0 -10 7 -21 15 -25 8 -3 15 -12 15 -20 0 -23 66 -28 422 -33
291 -3 342 -1 368 12 l30 16 0 1304 c0 1298 0 1305 20 1305 20 0 20 -7 20
-1308 l0 -1308 43 -12 c47 -14 611 -12 677 3 73 16 92 75 41 126 l-29 29 -291
0 -291 0 0 1265 c0 1118 2 1265 15 1265 8 0 15 5 15 11 0 6 6 16 13 24 6 7 21
25 31 39 l19 26 593 0 c587 0 594 0 594 -20 0 -11 7 -20 15 -20 8 0 15 -7 15
-15 0 -8 7 -15 15 -15 8 0 15 -5 15 -10 0 -6 -7 -13 -15 -16 -8 -4 -15 -17
-15 -30 0 -14 -7 -27 -15 -30 -8 -4 -15 -18 -15 -34 0 -16 -7 -30 -15 -34 -8
-3 -15 -16 -15 -29 0 -13 -7 -32 -15 -43 -8 -10 -15 -31 -15 -45 0 -14 -7 -34
-15 -45 -8 -10 -15 -29 -15 -42 0 -12 -7 -25 -15 -28 -8 -4 -15 -19 -15 -35 0
-15 -6 -32 -13 -36 -8 -4 -17 -26 -20 -48 -4 -22 -11 -41 -17 -43 -5 -2 -10
-16 -10 -32 0 -16 -6 -35 -13 -42 -8 -7 -17 -26 -21 -42 -4 -16 -14 -35 -22
-43 -8 -8 -11 -19 -8 -25 4 -6 -1 -17 -12 -25 -10 -7 -19 -26 -20 -41 -3 -49
-4 -52 -19 -52 -10 0 -15 -10 -15 -29 0 -16 -7 -34 -15 -41 -8 -7 -15 -26 -15
-42 0 -16 -6 -31 -15 -34 -9 -4 -15 -19 -15 -35 0 -17 -6 -32 -15 -35 -8 -4
-15 -18 -15 -34 0 -16 -7 -35 -15 -44 -8 -8 -15 -28 -15 -44 0 -17 -6 -32 -15
-36 -9 -3 -15 -19 -15 -41 0 -22 -6 -38 -15 -41 -9 -4 -15 -19 -15 -35 0 -19
-5 -29 -15 -29 -10 0 -15 -10 -15 -30 0 -18 -6 -33 -15 -36 -10 -4 -15 -20
-15 -45 0 -28 -4 -39 -15 -39 -10 0 -15 -10 -15 -29 0 -16 -7 -34 -15 -41 -16
-13 -22 -85 -6 -76 12 8 21 -44 21 -120 0 -50 3 -64 15 -64 10 0 15 -10 15
-31 0 -17 7 -37 15 -45 8 -9 15 -24 15 -35 0 -10 5 -19 10 -19 6 0 10 -7 10
-15 0 -8 8 -23 18 -33 9 -10 23 -30 31 -45 8 -15 18 -27 23 -27 4 0 8 -7 8
-15 0 -8 7 -15 15 -15 8 0 15 -7 15 -15 0 -8 7 -15 15 -15 8 0 15 -7 15 -15 0
-8 7 -15 15 -15 8 0 15 -7 15 -15 0 -8 7 -15 15 -15 9 0 18 -7 21 -15 4 -8 15
-15 25 -15 11 0 22 -6 25 -14 3 -8 16 -17 30 -20 13 -4 24 -11 24 -16 0 -6 14
-10 30 -10 18 0 33 -6 36 -15 4 -8 18 -15 34 -15 16 0 36 -8 46 -17 14 -15 42
-17 214 -17 172 0 200 2 214 17 10 9 31 17 47 17 19 0 29 5 29 15 0 10 10 15
34 15 21 0 36 6 40 15 3 8 15 15 26 15 11 0 19 5 17 12 -1 6 7 14 18 16 11 2
24 10 28 18 4 8 14 14 21 14 8 0 16 7 20 15 3 8 12 15 21 15 8 0 15 7 15 15 0
8 7 15 15 15 8 0 15 7 15 15 0 8 7 15 15 15 8 0 15 7 15 15 0 8 4 15 9 15 5 0
14 14 20 30 5 17 15 30 20 30 6 0 11 6 11 14 0 8 7 16 15 20 8 3 15 17 15 31
0 14 7 28 15 31 8 4 15 18 15 34 0 16 6 35 13 42 8 7 17 45 20 83 4 38 11 71
17 73 15 5 12 106 -5 138 -8 16 -15 36 -15 45 0 9 -7 22 -15 29 -8 7 -15 25
-15 41 0 19 -5 29 -15 29 -10 0 -15 10 -15 31 0 17 -7 37 -15 45 -8 9 -15 29
-15 45 0 19 -5 29 -15 29 -10 0 -15 10 -15 29 0 16 -6 31 -15 35 -10 3 -15 19
-15 45 0 25 -5 41 -15 45 -9 3 -15 19 -15 41 0 20 -4 34 -9 31 -11 -7 -21 17
-21 50 0 14 -7 27 -15 30 -9 4 -15 19 -15 40 0 22 -4 33 -12 32 -8 -2 -14 11
-16 35 -2 22 -10 41 -18 44 -8 3 -14 16 -14 29 0 14 -7 27 -15 30 -10 4 -15
20 -15 45 0 27 -5 41 -19 49 -13 6 -17 17 -14 30 3 12 -1 22 -11 26 -10 4 -16
18 -16 39 0 19 -7 40 -15 49 -8 8 -15 20 -15 27 0 6 -9 30 -19 53 -39 83 -51
114 -51 130 0 9 -4 16 -9 16 -5 0 -14 20 -20 45 -6 25 -16 45 -21 45 -6 0 -10
14 -10 30 0 20 -5 30 -15 30 -10 0 -15 10 -15 34 0 18 -7 39 -15 46 -9 8 -15
29 -15 55 0 29 5 45 15 49 8 3 15 12 15 21 0 8 7 15 15 15 12 0 15 17 15 90 0
73 -3 90 -15 90 -10 0 -15 10 -15 30 0 20 -5 30 -15 30 -9 0 -18 7 -21 15 -4
8 -15 15 -25 15 -11 0 -22 7 -25 15 -5 11 -23 15 -74 15 -51 0 -69 -4 -74 -15
-3 -8 -17 -15 -31 -15 -16 0 -25 -6 -25 -15 0 -8 -9 -15 -20 -15 -11 0 -21 -7
-21 -15 -1 -8 -2 -21 -3 -27 -1 -10 -128 -14 -593 -16 l-593 -2 0 25 c0 14 -7
28 -15 31 -8 4 -15 11 -15 18 0 18 -57 76 -75 76 -8 0 -18 7 -21 15 -4 9 -19
15 -40 15 -22 0 -37 6 -40 15 -5 11 -22 15 -65 15 -46 0 -59 -3 -59 -15z m107
-178 c4 -8 16 -16 26 -20 13 -5 17 -18 17 -66 0 -75 -14 -91 -80 -91 -42 0
-52 4 -74 31 -30 35 -30 36 -14 89 8 25 19 40 29 40 9 0 19 7 23 15 7 19 62
20 73 2z m-1663 -86 c3 -4 -1 -16 -8 -26 -13 -18 -14 -18 -31 -1 -15 15 -16
19 -4 27 18 11 36 11 43 0z m3296 -7 c0 -8 -5 -12 -10 -9 -6 4 -8 11 -5 16 9
14 15 11 15 -7z m-3300 -415 c0 -17 7 -37 15 -45 8 -9 15 -29 15 -45 0 -19 5
-29 15 -29 11 0 15 -11 15 -40 0 -27 5 -43 15 -46 8 -4 15 -18 15 -34 0 -16 7
-30 15 -34 9 -3 15 -18 15 -35 0 -16 6 -31 15 -35 9 -3 15 -18 15 -34 0 -16 7
-35 15 -42 8 -7 15 -21 15 -31 0 -9 7 -24 15 -33 8 -8 15 -31 15 -51 0 -21 6
-38 14 -41 8 -3 17 -17 21 -32 4 -15 11 -30 17 -33 6 -4 11 -22 13 -40 2 -19
3 -37 4 -41 1 -5 8 -8 16 -8 10 0 15 -10 15 -34 0 -19 7 -41 15 -50 8 -8 15
-26 15 -39 0 -14 7 -27 15 -31 9 -3 15 -19 15 -41 0 -22 6 -38 15 -41 8 -4 15
-18 15 -34 0 -16 7 -30 15 -34 9 -3 15 -18 15 -35 0 -16 6 -31 15 -35 8 -3 15
-17 15 -31 0 -15 7 -33 15 -41 8 -9 15 -27 15 -40 0 -14 7 -32 15 -40 17 -17
20 -44 5 -44 -5 0 -10 5 -10 10 0 7 -180 10 -521 10 -344 0 -518 -3 -514 -10
3 -5 1 -10 -4 -10 -6 0 -11 11 -11 25 0 14 6 25 14 25 8 0 16 16 19 42 3 24
11 44 16 46 6 2 11 16 11 32 0 16 7 30 15 34 9 3 15 18 15 35 0 16 7 36 15 45
8 8 15 26 15 41 0 14 7 28 15 31 8 4 15 18 15 34 0 15 6 30 14 33 7 3 16 24
20 46 3 23 11 41 16 41 6 0 10 13 10 29 0 16 6 31 14 34 7 3 16 21 19 41 3 20
13 43 21 51 8 9 13 22 10 30 -3 7 4 23 15 34 12 12 21 34 21 50 0 17 6 31 16
35 11 4 15 14 11 32 -3 18 1 29 14 37 13 8 19 23 19 49 0 27 4 38 15 38 10 0
15 10 15 29 0 16 6 31 14 34 8 3 16 22 18 44 2 24 8 37 16 36 8 -2 12 9 12 31
0 21 6 36 15 40 10 3 15 19 15 46 0 29 4 40 15 40 10 0 15 10 15 30 0 20 5 30
15 30 10 0 15 -10 15 -31z m3262 -2 c-2 -19 1 -27 12 -27 12 0 16 -10 16 -40
0 -27 5 -43 15 -46 9 -4 15 -19 15 -35 0 -19 5 -29 15 -29 11 0 15 -11 15 -40
0 -27 5 -43 15 -46 8 -4 15 -17 15 -30 0 -14 7 -27 15 -30 9 -4 15 -19 15 -39
0 -18 8 -39 19 -49 12 -11 16 -25 13 -41 -3 -16 1 -27 11 -31 9 -3 19 -20 23
-37 3 -17 13 -37 20 -45 8 -7 14 -26 14 -42 0 -16 7 -30 15 -34 9 -3 15 -19
15 -41 0 -22 6 -38 15 -41 8 -4 15 -18 15 -34 0 -16 7 -30 15 -34 9 -3 15 -18
15 -34 0 -16 7 -35 15 -42 8 -7 15 -25 15 -41 0 -19 5 -29 15 -29 10 0 15 -10
15 -29 0 -16 6 -31 15 -35 10 -3 15 -19 15 -46 0 -27 5 -43 15 -46 8 -4 15
-18 15 -34 0 -16 7 -30 15 -34 10 -3 15 -19 15 -46 0 -29 4 -40 15 -40 9 0 15
-9 15 -25 0 -14 -4 -25 -10 -25 -5 0 -10 5 -10 10 0 7 -177 10 -510 10 -333 0
-510 -3 -510 -10 0 -5 -7 -10 -15 -10 -8 0 -15 6 -15 14 0 8 7 21 15 30 8 8
15 26 15 39 0 14 6 27 14 30 7 3 16 24 20 46 3 23 11 41 16 41 6 0 10 14 10
30 0 18 6 33 15 36 8 4 15 18 15 34 0 15 6 33 14 39 8 7 17 27 20 46 4 19 11
35 16 35 6 0 10 11 10 25 0 14 9 42 20 62 11 21 20 43 20 50 0 7 7 13 15 13
10 0 14 10 13 36 -1 21 5 42 13 48 8 6 16 22 17 36 2 14 10 29 18 33 8 4 14
19 14 32 0 13 7 30 15 39 8 8 15 29 15 46 0 18 6 33 15 36 9 4 15 19 15 40 0
22 6 37 15 40 8 4 15 14 15 24 0 28 11 51 21 44 5 -3 9 10 9 29 0 22 6 37 15
41 9 3 15 19 15 41 0 22 6 38 15 41 8 4 15 18 15 34 0 16 7 30 15 34 9 3 15
18 15 39 0 19 3 37 7 41 14 14 28 -2 25 -27z m-3818 -1479 c5 -10 7 -10 12 0
7 14 74 17 74 2 0 -7 148 -10 425 -10 277 0 425 3 425 10 0 6 9 10 20 10 11 0
20 -4 20 -10 0 -5 25 -10 55 -10 30 0 55 5 55 10 0 6 5 10 10 10 17 0 12 -80
-5 -86 -8 -4 -15 -18 -15 -34 0 -16 -6 -35 -13 -42 -8 -7 -17 -26 -21 -41 -3
-15 -11 -27 -16 -27 -6 0 -10 -9 -10 -20 0 -11 -7 -20 -15 -20 -8 0 -15 -7
-15 -15 0 -8 -7 -15 -15 -15 -8 0 -15 -7 -15 -15 0 -8 -7 -15 -15 -15 -8 0
-15 -7 -15 -15 0 -8 -6 -15 -14 -15 -8 0 -16 -7 -20 -15 -3 -8 -15 -15 -26
-15 -11 0 -20 -7 -20 -15 0 -9 -9 -15 -25 -15 -16 0 -25 -6 -25 -15 0 -11 -11
-15 -39 -15 -25 0 -41 -5 -45 -15 -4 -12 -33 -15 -171 -15 -138 0 -167 3 -171
15 -4 10 -20 15 -45 15 -28 0 -39 4 -39 15 0 8 -9 15 -20 15 -11 0 -23 7 -26
15 -4 8 -17 15 -30 15 -15 0 -24 6 -24 15 0 8 -5 15 -11 15 -14 0 -79 67 -79
81 0 5 -7 9 -15 9 -9 0 -15 9 -15 25 0 14 -7 28 -15 31 -8 4 -15 12 -15 19 0
7 -7 15 -15 19 -9 3 -15 19 -15 41 0 22 -6 38 -15 41 -10 4 -15 20 -15 50 0
42 12 58 24 32z m3266 2 c0 -6 27 -10 60 -10 33 0 60 4 60 10 0 7 162 10 465
10 303 0 465 -3 465 -10 0 -5 7 -10 15 -10 8 0 15 5 15 10 0 6 5 10 10 10 17
0 12 -87 -5 -94 -9 -3 -15 -19 -15 -41 0 -21 -6 -38 -14 -41 -8 -3 -17 -16
-20 -30 -4 -13 -11 -24 -16 -24 -6 0 -10 -9 -10 -20 0 -11 -7 -20 -15 -20 -8
0 -15 -5 -15 -10 0 -15 -64 -80 -79 -80 -6 0 -11 -7 -11 -15 0 -8 -9 -15 -19
-15 -10 0 -21 -7 -25 -15 -3 -8 -17 -15 -31 -15 -16 0 -25 -6 -25 -15 0 -11
-11 -15 -39 -15 -26 0 -41 -5 -45 -15 -5 -13 -31 -15 -173 -13 -128 2 -167 6
-165 16 1 8 -12 12 -43 12 -33 0 -45 4 -45 15 0 8 -9 15 -20 15 -11 0 -23 7
-26 15 -4 8 -15 15 -25 15 -10 0 -19 7 -19 15 0 8 -9 15 -20 15 -11 0 -20 7
-20 15 0 8 -7 15 -15 15 -8 0 -15 7 -15 15 0 8 -7 15 -15 15 -8 0 -15 6 -15
14 0 8 -7 16 -15 20 -8 3 -15 17 -15 31 0 16 -6 25 -15 25 -8 0 -15 7 -15 16
0 8 -7 22 -15 30 -8 9 -15 27 -15 40 0 14 -7 32 -15 40 -8 9 -15 31 -15 50 0
24 5 34 15 34 8 0 15 -4 15 -10z"/>
<path d="M1786 1005 c-3 -8 -12 -15 -20 -15 -7 0 -17 -11 -20 -25 -4 -14 -11
-23 -16 -20 -6 3 -10 -1 -10 -9 0 -9 4 -16 8 -16 5 0 14 -11 20 -25 7 -14 20
-25 31 -25 11 0 26 -7 35 -15 13 -13 110 -15 756 -15 434 0 739 4 736 9 -7 10
17 21 45 21 10 0 19 6 19 14 0 8 7 17 16 20 11 4 14 17 12 43 -3 33 -7 38 -30
41 -16 2 -28 9 -28 18 0 22 -1545 21 -1554 -1z"/>
</g>
</svg>
